<?xml version="1.0" encoding="utf-8"?>
<!-- Generator: Adobe Illustrator 23.0.1, SVG Export Plug-In . SVG Version: 6.00 Build 0)  -->
<svg version="1.1" xmlns="http://www.w3.org/2000/svg" xmlns:xlink="http://www.w3.org/1999/xlink" x="0px" y="0px"
	 viewBox="0 0 481 196" style="enable-background:new 0 0 481 196;" xml:space="preserve" fill="white">
<g id="Layer_4">
	<g>
		<line x1="11.76" y1="151.5" x2="213" y2="151.5"/>
		<rect x="11.76" y="149.7" width="201.24" height="3.6"/>
	</g>
	<g>
		<line x1="11.72" y1="159.96" x2="206" y2="160.4"/>
		<rect x="107.73" y="63.04" transform="matrix(2.282106e-03 -1 1 2.282106e-03 -51.5637 268.673)" width="2.25" height="194.28"/>
	</g>
	<g>
		<line x1="11.95" y1="167.5" x2="204" y2="167.5"/>
		<rect x="11.95" y="166.94" width="192.05" height="1.12"/>
	</g>
	<g>
		<line x1="11.82" y1="176.5" x2="201" y2="176.5"/>
		<rect x="11.82" y="175.94" width="189.18" height="1.12"/>
	</g>
	<g>
		<line x1="11.76" y1="186.5" x2="200" y2="186.5"/>
		<rect x="11.76" y="186.22" width="188.24" height="0.56"/>
	</g>
	<g>
		<path d="M97.15,89.71c17.99-7.92,35.99-35.99,17.99-61.9S64.04,3.33,64.04,3.33H11.5c0.36,0,0,141.08,0,141.08h37.43V97.62h12.24
			l33.11,47.5h42.47L97.15,89.71z M69.44,72.07c-7.2,3.6-20.87,1.44-20.87,1.44V26.73c5.76,0,33.11-2.16,34.55,20.15
			S69.44,72.07,69.44,72.07z"/>
		<path d="M178.85,32.49c-32.2,0-58.3,25.62-58.3,57.22c0,31.6,26.1,57.22,58.3,57.22s58.3-25.62,58.3-57.22
			C237.15,58.1,211.05,32.49,178.85,32.49z M179.21,118.86c-10.53,0-19.07-13.37-19.07-29.87c0-16.5,8.54-29.87,19.07-29.87
			s19.07,13.37,19.07,29.87C198.28,105.48,189.74,118.86,179.21,118.86z"/>
		<path d="M244.35,34.64v108.69h36.71V99.42l45.35,45.35h47.5l-57.22-57.22l47.5-47.5v65.86c0,0-1.8,25.91,24.83,37.43
			c26.63,11.52,53.98-8.64,57.58-13.68l16.55,14.4h7.92V34.64h-36.71v70.54c0,0-4.32,7.92-9.36,10.08
			c-5.04,2.16-13.68,3.6-16.55,0.72c0,0-5.76-1.44-6.48-11.52c-0.72-10.08,0-70.54,0-70.54h-77.02l-43.91,43.91V34.64H244.35z"/>
	</g>
	<g>
		<polygon points="208.22,153.46 226.32,153.46 227.17,149.69 204.17,149.69 195.83,187.31 200.77,187.31 204.59,170.27 
			219.84,170.27 220.69,166.5 205.36,166.5 		"/>
		<path d="M266.14,149.69l-20.39,33.86h-17.24l7.49-33.86h-4.95l-8.34,37.62h20.77h1.75h3.73l6.7-11.74h14.68l1.18,11.74h5.13
			l-4.82-37.62H266.14z M257.65,172.09l3.64-6.39c2.34-4.13,4.46-7.94,6.68-12.26h0.25c0.32,4.29,0.77,8.27,1.14,12.26l0.64,6.39
			H257.65z"/>
		<path d="M295.68,152.85c3.87,0,6.82,1.81,8.95,4.1l3.22-2.64c-2.61-3.07-6.8-5.32-11.8-5.32c-7.51,0-12.98,4.79-12.98,10.44
			c0,4.24,2.85,6.9,6.42,8.86l4.85,2.62c3.14,1.68,5.19,3.4,5.19,6.19c0,4.31-3.84,7.07-8.93,7.07c-4.62,0-8.25-1.98-10.73-5.29
			l-3.63,2.48c3.36,4.46,8.21,6.62,13.92,6.62c8.47,0,14.46-4.8,14.46-11.51c0-4.21-2.27-6.74-6.24-8.85l-4.86-2.59
			c-3.06-1.64-5.41-3.2-5.41-6.08C288.12,155.92,290.99,152.85,295.68,152.85z"/>
		<polygon points="338.76,149.69 335.22,165.56 316.38,165.56 319.96,149.69 315.02,149.69 306.67,187.31 311.62,187.31 
			315.57,169.45 334.41,169.45 330.41,187.31 335.36,187.31 343.7,149.69 		"/>
		<path d="M366.08,167.66l0.05-0.23c4.6-0.95,9.3-4.33,9.3-9.43c0-5.42-4.93-8.31-12.92-8.31h-11.13l-8.34,37.62h13.39
			c9.9,0,17.3-3.66,17.3-12.02C373.71,170.98,370.38,168.55,366.08,167.66z M355.52,153.2h5.74c6.3,0,9.13,2.02,9.13,5.46
			c0,4.24-3.75,7.24-11.69,7.24h-6L355.52,153.2z M355.97,183.8h-7.27l3.32-14.68h7.36c6.14,0,9.53,2.61,9.53,6.41
			C368.9,181.34,363.87,183.8,355.97,183.8z"/>
		<path d="M393.95,149.69l-22.66,37.62h5.48l6.7-11.74h14.68l1.18,11.74h5.13l-4.82-37.62H393.95z M385.46,172.09l3.64-6.39
			c2.34-4.13,4.46-7.94,6.68-12.26h0.25c0.32,4.29,0.77,8.27,1.14,12.26l0.64,6.39H385.46z"/>
		<path d="M427.76,149c-12.93,0-21.52,11.98-21.52,23.83c0,9,5.28,15.17,14.78,15.17c5.04,0,8.9-1.95,11.99-4.34l-2.27-2.88
			c-2.71,2.07-5.48,3.36-8.85,3.36c-7.44,0-10.61-4.91-10.61-11.75c0-9.11,6.3-19.55,16.22-19.55c3.19,0,5.44,1.64,7.05,4.07
			l3.49-2.35C435.93,151.4,432.51,149,427.76,149z"/>
		<polygon points="472.42,149.69 466.82,149.69 445.93,168.28 445.76,168.28 449.88,149.69 444.93,149.69 436.59,187.31 
			441.54,187.31 444.39,174.67 453.1,167 461.13,187.31 466.3,187.31 456.82,164.16 		"/>
	</g>
	<path style="fill:none;stroke:#000000;stroke-width:1.1232;stroke-miterlimit:10;" d="M12.5,195.5"/>
	<path style="fill:none;stroke:#000000;stroke-width:1.1232;stroke-miterlimit:10;" d="M12.5,141.5"/>
</g>
<g id="Layer_2">
	<path style="fill:none;stroke:#000000;stroke-width:54;stroke-miterlimit:10;" d="M81,163.5"/>
</g>
</svg>
